<svg version="1.1" xmlns="http://www.w3.org/2000/svg" xmlns:xlink="http://www.w3.org/1999/xlink" x="0px" y="0px"
	 width="36px" height="36px" viewBox="0 0 36 36" enable-background="new 0 0 36 36" xml:space="preserve">
<path fill="#654B7A" d="M17.999,0.497c-9.666,0-17.502,7.837-17.502,17.504c0,9.666,7.836,17.502,17.502,17.502
	c9.667,0,17.504-7.836,17.504-17.502C35.503,8.334,27.666,0.497,17.999,0.497z M18.131,9.926c6.103,0,10.981,3.452,11.86,7.563
	c-2.347-2.631-6.805-4.436-11.992-4.436c-5.184,0-9.643,1.805-11.988,4.436C6.888,13.378,12.026,9.926,18.131,9.926z M18.769,26.073
	c-8.062,0.105-8.484-4.491-14.655-4.491c-0.263,0,10.381-6.534,15.771-4.306c3.585,1.484,5.698,0.805,5.513,1.115
	c-0.743,1.239-2.205,2.793-6.752,1.857c-2.107-0.432-0.247,1.006,2.106,1.4c6.481,1.085,11.452-3.752,11.123-2.701
	C31.548,20.001,25.363,25.986,18.769,26.073z"/>
</svg>
