<svg version="1.1" xmlns="http://www.w3.org/2000/svg" xmlns:xlink="http://www.w3.org/1999/xlink" x="0px" y="0px" width="72px"
	 height="72px" viewBox="0 0 72 72" enable-background="new 0 0 72 72" xml:space="preserve">
	<path fill="#387754" stroke="#FFFFFF" stroke-width="4" stroke-miterlimit="10" d="M70,58.072C70,64.657,64.657,70,58.072,70
		H13.931C7.341,70,2,64.657,2,58.072V13.931C2,7.341,7.341,2,13.931,2h44.142C64.657,2,70,7.341,70,13.931V58.072z"/>
	<path fill="#FFFFFF" d="M62.715,53.346c0,5.174-4.195,9.369-9.369,9.369H18.66c-5.178,0-9.375-4.195-9.375-9.369V18.66
		c0-5.178,4.196-9.375,9.375-9.375h34.686c5.174,0,9.369,4.196,9.369,9.375V53.346z"/>
	<polygon fill="#387754" points="65.75,45.809 5.456,61.968 5.625,20.688 59.407,6.897 65.75,9.747 	"/>
	<path fill="#FFFFFF" d="M30.393,49.727l-5.325-9.282l-6.007,1.609v10.71l-5.908,1.584v-29.75l13.855-3.713
		c1.388-0.371,2.705-0.534,3.952-0.485s2.338,0.346,3.273,0.888c0.934,0.542,1.67,1.33,2.21,2.36
		c0.537,1.033,0.808,2.342,0.808,3.928c0,2.238-0.476,4.201-1.423,5.886c-0.95,1.685-2.374,3.149-4.272,4.396l5.696,10.034
		L30.393,49.727z M30.001,26.772c-0.754-0.376-1.8-0.384-3.135-0.027l-7.805,2.091v7.607l7.805-2.091
		c2.843-0.763,4.266-2.424,4.266-4.989C31.132,28.012,30.754,27.147,30.001,26.772z"/>
	<path fill="#FFFFFF" d="M53.677,43.488v-1.403c-0.566,0.635-1.225,1.244-1.976,1.826c-0.752,0.584-1.665,1.021-2.743,1.309
		c-1.188,0.318-2.308,0.393-3.354,0.221c-1.049-0.172-1.971-0.642-2.764-1.406c-0.793-0.766-1.419-1.831-1.87-3.195
		c-0.454-1.368-0.679-3.099-0.679-5.196c0-1.671,0.188-3.253,0.572-4.744c0.383-1.49,0.941-2.837,1.681-4.041
		c0.735-1.203,1.641-2.225,2.717-3.065c1.077-0.842,2.311-1.448,3.697-1.82c0.993-0.266,1.893-0.337,2.701-0.213
		c0.807,0.125,1.479,0.354,2.018,0.691v-7.012l5.909-4.516v30.982L53.677,43.488z M53.677,28.146
		c-0.939-1.022-2.266-1.306-3.973-0.848c-2.34,0.627-3.506,2.837-3.506,6.635c0,2.295,0.348,3.86,1.046,4.693
		c0.697,0.832,1.631,1.092,2.8,0.778c0.911-0.244,1.637-0.607,2.181-1.094c0.54-0.485,1.025-1.068,1.452-1.75V28.146z"/>
</svg>
