<svg version="1.1" xmlns="http://www.w3.org/2000/svg" xmlns:xlink="http://www.w3.org/1999/xlink" x="0px" y="0px" width="100%" height="100%" viewBox="0 0 70 70" preserveAspectRatio="none" xml:space="preserve">
    <path fill="#81b836" d="M22.863,6.389C7.066,13.102-0.305,31.339,6.404,47.129
		c6.699,15.794,24.945,23.154,40.742,16.456c15.802-6.705,23.17-24.938,16.459-40.728C56.903,7.059,38.654-0.309,22.863,6.389
		 M23.176,9.676c0.191-0.099,1.339-0.681,1.531-0.78c0.112,0.235,3.723,7.303,3.849,7.535c-0.196,0.105-1.313,0.673-1.44,0.738
		c-0.139-0.105-3.961-3.145-3.961-3.145s1.974,3.87,2.09,4.093c-0.191,0.101-1.341,0.688-1.538,0.789
		c-0.116-0.231-3.731-7.311-3.843-7.543c0.19-0.093,1.381-0.708,1.51-0.776c0.133,0.111,3.939,3.28,3.939,3.28
		S23.291,9.905,23.176,9.676 M56.336,16.917c0.147,0.162,1.007,1.109,1.152,1.264c-0.189,0.179-6.066,5.527-6.25,5.705
		c-0.148-0.165-0.995-1.089-1.091-1.198c0.068-0.151,1.979-4.637,1.979-4.637s-3.199,2.925-3.39,3.095
		c-0.151-0.164-1.017-1.119-1.166-1.28c0.193-0.169,6.06-5.523,6.249-5.7c0.156,0.165,1.053,1.149,1.157,1.265
		c-0.077,0.153-2.12,4.661-2.12,4.661S56.142,17.087,56.336,16.917 M53.716,41.414c0.025,0,0.547-1.322,0.656-1.604
		c0.096,0.08,3.783,3.214,3.783,3.214l3.295,1.358l-0.631,1.663l-3.316-1.281l-4.958-0.217l0.609-1.556l3.182,0.265
		C56.336,43.257,53.722,41.414,53.716,41.414 M60.77,29.906c0,0-0.483,0.14-0.728,0.211c-0.056-0.208-0.418-1.402-0.478-1.609
		c0.171-0.053,0.555-0.165,0.555-0.165c0.283-0.092,0.452-0.333,0.452-0.612c0-0.076-0.004-0.146-0.023-0.216
		c-0.108-0.339-0.429-0.627-0.84-0.509c-0.889,0.269-0.979,0.643-1.261,1.893l-0.021,0.104c-0.266,1.139-1.067,2.042-2.09,2.347
		c-0.546,0.167-1.117,0.108-1.621-0.162c-0.574-0.313-1.005-0.876-1.229-1.621c-0.123-0.412-0.182-0.784-0.182-1.139
		c0-0.395,0.084-0.751,0.248-1.05c0.233-0.426,0.607-0.728,1.136-0.881c0,0,0.565-0.174,0.815-0.245
		c0.063,0.206,0.423,1.401,0.483,1.612c-0.168,0.054-0.596,0.171-0.596,0.171c-0.172,0.061-0.325,0.174-0.41,0.327
		c-0.058,0.107-0.085,0.23-0.085,0.353c0,0.103,0.016,0.196,0.05,0.306c0.138,0.471,0.464,0.654,0.89,0.529
		c0.702-0.213,0.872-0.77,1.204-1.896l0.094-0.33c0.319-1.062,1.041-1.805,2.038-2.101c0.535-0.167,1.1-0.107,1.599,0.155
		c0.589,0.317,1.025,0.901,1.271,1.691c0.076,0.278,0.111,0.555,0.111,0.825c0,0.395-0.085,0.753-0.26,1.085
		C61.651,29.429,61.25,29.756,60.77,29.906 M57.509,21.525c0.195-0.103,1.325-0.731,1.514-0.837
		c0.106,0.191,0.735,1.326,0.836,1.521c-0.193,0.112-1.465,0.817-1.564,0.87c-0.112-0.051-1.49-0.657-1.566-0.682
		c-0.018-0.039-0.074-0.149-0.149-0.291c0.357,0.074,1.416,0.291,1.416,0.291S57.597,21.695,57.509,21.525 M44.625,37.581
		c1.035,2.395-3.204,4.327-4.887,1.494c-0.1-0.186-0.989-1.779-1.575-1.779c-0.245,0-0.436,0.092-0.538,0.276
		c-0.146,0.283-0.035,0.734,0.309,1.258c1.249,1.89,1.764,4.74,1.764,5.611c0,0.574-0.082,1.012-0.664,1.137
		c0,0-0.503,0.14-0.87,0.157c-0.186,0.014-0.33-0.101-0.332-0.396c-0.012-0.299,0.021-0.71,0.047-1.094
		c0.105-1.362-0.116-5.819-1.656-5.819c-0.316,0-0.538,0.078-0.672,0.233c-0.233,0.26-0.196,0.731-0.132,1.33l0.05,1.302
		c-0.083,1.621-0.604,2.606-1.618,3.012c-0.994,0.395-2.268-0.699-3.027-1.881c-0.474-0.746-0.953-0.84-1.561-0.954
		c-1.283-0.241-1.934-0.395-2.137-1.342c-0.109-0.506,0.119-1.125,0.646-1.734c0.784-0.925,3.092-1.342,4.088-1.438
		c1.269-0.13,2.172-0.269,1.833-0.819c-0.424-0.706-1.336-0.574-2.458-0.353c-0.725,0.149-3.191,0.592-4.512,0.238
		c-1.41-0.375-2.061-1.272-1.777-2.463c0.16-0.674,0.92-1.35,1.521-1.772c0.6-0.421,1.047-1.518,1.041-2.178
		c0-0.535,0-1.151,0.222-1.688c0.396-1.009,1.582-1.152,2.849-0.295c0.793,0.551,2.132,3.039,2.519,3.794
		c0.455,0.901,1.306,2.372,1.786,2.206c0.271-0.099,0.77-0.327-0.341-1.923c-1.081-1.547-2.062-3.093-1.634-5.803
		c0.22-1.425,2.347-2.042,3.461-0.983c1.279,1.207,2.203,1.299,3.403,1.066c1.621-0.31,2.812,1.025,2.536,2.229
		c-0.272,1.171-4.027,4.168-4.027,4.168c-1.6,1.604-0.363,2.078,0.258,1.521c0.277-0.248,1.601-1.691,3.317-2.533
		c2.53-1.219,4.161,0.884,3.338,2.39C44.387,35.215,44.002,36.155,44.625,37.581 M33.241,56.482l-0.929,4.882
		c-0.158,0.815-1.309,1.582-2.587,1.341c-0.652-0.131-1.235-0.502-1.601-1.04c-0.262-0.382-0.371-0.81-0.303-1.158l0.936-4.88
		c0.057-0.353,0.326-0.706,0.715-0.968c0.529-0.36,1.211-0.5,1.871-0.369c0.651,0.124,1.23,0.501,1.588,1.028
		C33.199,55.711,33.315,56.129,33.241,56.482 M25.947,59.977c-0.045,0.01-0.688,1.435-0.688,1.435
		c-0.01-0.047-3.382-1.569-3.386-1.569c0.047,0,3.423-7.525,3.438-7.552c0,0.05,1.684,0.81,1.691,0.813
		c-0.061,0-2.775,6.049-2.775,6.049L24.214,59.2C24.214,59.2,25.941,59.977,25.947,59.977 M37.558,8.557
		c0.044-0.204,0.25-1.263,0.294-1.463c0.243,0.046,4.718,0.918,4.966,0.967c-0.044,0.206-0.248,1.264-0.284,1.471
		c-0.221-0.044-1.498-0.293-1.498-0.293s-1.28,6.58-1.33,6.835c-0.226-0.041-1.716-0.332-1.929-0.382
		c0.047-0.252,1.323-6.826,1.323-6.826S37.782,8.607,37.558,8.557 M44.096,18.025c-0.731-0.394-1.262-0.995-1.466-1.664
		c-0.144-0.476-0.103-0.952,0.112-1.358l2.284-4.274c0.529-1.002,1.975-1.242,3.263-0.554c1.303,0.697,1.897,2.019,1.36,3.023
		l-2.293,4.275c-0.21,0.41-0.582,0.698-1.063,0.846C45.623,18.521,44.823,18.412,44.096,18.025 M34.243,15.47
		c-0.062-0.101-0.394-0.569-0.394-0.569l-0.094,0.21c-0.141,0.263-0.8,0.735-1.411,0.808c-1.487,0.186-2.509-0.667-2.619-1.599
		l-0.63-5.028c-0.037-0.343,0.1-0.753,0.398-1.134c0.459-0.594,1.207-1,2.043-1.105c0.825-0.095,1.634,0.105,2.219,0.552
		c0.376,0.3,0.617,0.674,0.671,1.026c0,0,0.115,0.994,0.153,1.304c-0.216,0.025-1.799,0.225-2.019,0.25
		c-0.024-0.214-0.132-1.052-0.132-1.052c-0.035-0.303-0.32-0.475-0.687-0.427c-0.354,0.043-0.599,0.287-0.565,0.576l0.556,4.477
		c0.032,0.277,0.314,0.525,0.765,0.471c0.289-0.042,0.441-0.161,0.519-0.258c0,0,0.136-0.179,0.099-0.385
		c-0.019-0.216-0.119-0.983-0.119-0.983s-0.449,0.049-0.615,0.068c-0.024-0.194-0.117-0.896-0.141-1.09
		c0.232-0.037,2.338-0.289,2.566-0.326c0.036,0.241,0.479,3.831,0.51,4.073C35.116,15.359,34.369,15.453,34.243,15.47
		 M16.665,13.896c0.183,0.186,5.593,5.995,5.775,6.188c-0.167,0.149-1.279,1.183-1.444,1.339c-0.168-0.192-5.588-6-5.768-6.194
		C15.394,15.083,16.5,14.045,16.665,13.896 M19.734,22.602c-0.115,0.19-0.902,1.495-1.013,1.682
		c-0.214-0.128-2.747-1.644-2.747-1.644L15.161,24c0,0,2.526,1.521,2.74,1.647c-0.114,0.192-0.899,1.493-1.015,1.687
		c-0.222-0.134-7.029-4.217-7.252-4.356c0.116-0.189,0.9-1.485,1.01-1.68c0.213,0.125,3.033,1.819,3.033,1.819l0.819-1.368
		c0,0-2.819-1.691-3.032-1.821c0.104-0.192,0.896-1.494,1.009-1.681C12.693,18.378,19.505,22.464,19.734,22.602 M14.524,30.31
		c-0.098-0.144-0.251-0.237-0.466-0.278c-0.721-0.147-1.127,0.271-1.954,1.101l-0.242,0.241c-0.777,0.792-1.766,1.107-2.779,0.903
		c-0.562-0.107-1.028-0.432-1.339-0.896c-0.363-0.557-0.485-1.28-0.314-2.084c0.146-0.703,0.508-1.28,1.02-1.616
		c0.426-0.295,0.936-0.391,1.432-0.295c0,0,0.487,0.107,0.737,0.152c-0.042,0.219-0.288,1.441-0.335,1.652
		c-0.187-0.035-0.581-0.112-0.581-0.112c-0.354-0.075-0.681,0.149-0.749,0.522c-0.078,0.345,0.075,0.757,0.491,0.843
		c0.903,0.185,1.159-0.11,2.009-1.075l0.064-0.081c0.771-0.882,1.901-1.299,2.952-1.079c0.56,0.105,1.043,0.432,1.35,0.903
		c0.357,0.547,0.476,1.246,0.319,2.003c-0.18,0.898-0.557,1.558-1.076,1.91c-0.406,0.265-0.886,0.345-1.429,0.236
		c0,0-0.585-0.116-0.841-0.171c0.051-0.208,0.293-1.435,0.34-1.648c0.172,0.037,0.607,0.125,0.607,0.125
		c0.418,0.082,0.757-0.177,0.854-0.655C14.648,30.666,14.621,30.463,14.524,30.31 M15.344,34.731
		c0.027,0.264,0.218,1.812,0.242,2.014c-0.192,0.04-1.121,0.247-1.121,0.247l0.16,1.303c0,0,0.971,0.022,1.16,0.029
		c0.019,0.186,0.18,1.438,0.209,1.687c-0.305-0.008-8.354-0.37-8.576-0.378c-0.021-0.194-0.275-2.228-0.301-2.425
		C7.324,37.14,15.055,34.821,15.344,34.731 M11.26,49.893c0.167-0.132,4.123-3.033,4.123-3.033s-4.697,1.466-4.91,1.529
		c-0.08-0.154-0.483-0.943-0.572-1.094c0.175-0.137,4.041-3.105,4.041-3.105s-4.653,1.453-4.858,1.513
		c-0.091-0.162-0.672-1.3-0.804-1.54c0.314-0.085,8.134-2.247,8.336-2.307c0.09,0.161,0.631,1.206,0.716,1.374
		c-0.173,0.128-3.788,2.865-3.788,2.865s4.326-1.374,4.531-1.438c0.08,0.171,0.664,1.288,0.758,1.456
		c-0.165,0.137-6.439,5.288-6.683,5.497C12.023,51.367,11.346,50.056,11.26,49.893 M34.455,54.868l4.451-0.332l0.109,1.434
		l-1.26,0.1l0.533,6.854l-1.864,0.107l-0.527-6.799l-1.347,0.092L34.455,54.868z M44.448,61.465l-2.497-6.347l-1.285,0.509
		l-0.483-1.288l4.153-1.645l0.487,1.256l-1.201,0.479l2.581,6.375L44.448,61.465z M45.37,51.903l3.017-2.183l0.8,1.139l-1.461,1.084
		l1.069,1.502l1.045-0.723l0.887,1.264l-0.975,0.669l1.12,1.585l1.549-1.088l0.883,1.257l-3.021,2.186L45.37,51.903z M49.22,48.891
		l1.656-2.051c0.522-0.663,0.831-0.764,1.297-0.826c0.348-0.032,0.684,0.059,0.997,0.302l1.426,1.107
		c0.304,0.245,0.412,0.651,0.29,1.137l-0.02,0.102l0.089-0.049c0.454-0.243,0.909-0.247,1.194-0.023
		c0.009,0,2.479,1.818,2.479,1.818l-1.109,1.335l-2.357-1.764c-0.151-0.106-0.376-0.121-0.565,0.129l-0.282,0.367l2.616,2.098
		l-1.188,1.455L49.22,48.891z" />
    <path fill="#81b836" d="M31.079,55.769c-0.196-0.048-0.462-0.027-0.534,0.35l-0.082,0.348l-0.8,4.226
		c-0.073,0.371,0.173,0.495,0.371,0.522c0.247,0.036,0.396-0.062,0.476-0.313c0,0,0.879-4.555,0.896-4.618
		C31.449,55.987,31.336,55.824,31.079,55.769" />
    <polygon fill="#81b836" points="12.849,37.335 9.529,38.169 12.945,38.224 	" />
    <path fill="#81b836" d="M52.421,47.902c-0.17-0.144-0.384-0.116-0.529,0.063
		c-0.138,0.177-0.324,0.408-0.324,0.408l1.57,1.258l0.384-0.401c0.148-0.2,0.122-0.375-0.075-0.53
		C53.446,48.7,52.595,48.055,52.421,47.902" />
    <path fill="#81b836" d="M47.857,12.148c0-0.194-0.132-0.388-0.348-0.503
		c-0.163-0.092-0.348-0.116-0.485-0.062c0,0-0.188,0.029-0.281,0.224c-0.108,0.193-2.152,4.022-2.152,4.022
		c-0.143,0.262-0.016,0.563,0.29,0.726c0.176,0.084,0.35,0.116,0.489,0.071c0,0,0.149-0.027,0.284-0.228
		c0.132-0.199,2.151-4.026,2.151-4.026C47.836,12.303,47.857,12.231,47.857,12.148" />
    <path fill="#81b836" d="M48.115,2.569C39.449-0.937,29.939-0.85,21.34,2.801
		C12.734,6.458,6.072,13.237,2.57,21.903C0.859,26.11,0,30.52,0,35.004c0,4.698,0.945,9.295,2.795,13.666
		c3.662,8.602,10.436,15.267,19.107,18.768c8.666,3.495,18.176,3.414,26.784-0.238c17.752-7.537,26.073-28.113,18.531-45.867
		C63.571,12.729,56.786,6.072,48.115,2.569 M48.161,65.971c-8.277,3.502-17.415,3.591-25.748,0.218
		c-8.338-3.359-14.864-9.771-18.38-18.045c-1.789-4.203-2.698-8.628-2.698-13.14c0-4.307,0.841-8.548,2.478-12.607
		C7.176,14.07,13.59,7.545,21.859,4.034c8.285-3.508,17.422-3.586,25.761-0.225c8.326,3.37,14.856,9.778,18.362,18.049
		C73.234,38.931,65.239,58.716,48.161,65.971" />
</svg>
