<svg version="1.1" xmlns="http://www.w3.org/2000/svg" xmlns:xlink="http://www.w3.org/1999/xlink" x="0px" y="0px"
	 width="198px" height="20px" viewBox="0 0 198 20" enable-background="new 0 0 198 20" xml:space="preserve">
<path fill="#3C3C3B" d="M185.357,3.444l-1.201,3.594l0.705-0.437c1.289-0.789,1.539-0.861,3.326-0.861h0.98v9.077
	c0,1.808-0.139,2.36-0.613,3.546l-0.168,0.405h4.598l-0.117-0.382c-0.416-1.305-0.441-1.963-0.441-3.518V5.74h1.219
	c0.922,0,1.635,0.225,2.34,0.77l0.338,0.248l1.082-3.313H185.357z M179.82,9.871l-1.803-0.688c-1.504-0.573-2.229-0.909-2.229-2.071
	c0-1.015,0.977-1.743,2.324-1.743c1.602,0,2.416,0.709,3.293,1.462l0.705,0.617V3.953L182.1,3.716L181.9,3.66
	c-0.855-0.285-2.137-0.705-3.924-0.705c-3.383,0-5.746,1.948-5.746,4.74c0,2.717,2.127,3.848,4.199,4.577l1.146,0.433
	c1.297,0.457,2.156,0.979,2.156,2.032c0,1.009-1.012,2.06-2.686,2.06c-2.02,0-4.023-1.567-4.609-2.168l-0.682-0.682l0.764,4.288
	l0.119,0.063c0.572,0.338,2.678,0.955,4.623,0.955c3.455,0,5.955-2.213,5.955-5.242C183.217,11.15,181.086,10.353,179.82,9.871
	 M165.305,16.424h-2.293V11.76h1.732c1.291,0,2.051,0.256,2.781,0.537l0.4,0.151v-3.63l-0.441,0.239
	c-0.736,0.405-1.514,0.426-2.828,0.426h-1.645V5.74h2.254c1.914,0,2.604,0.144,3.678,0.77l0.514,0.284l-0.385-3.35h-10.227
	l0.367,0.472c0.537,0.698,0.57,1.688,0.57,3.215v7.481c0,2.429-0.232,3.022-0.609,3.711l-0.24,0.445h10.416l1.236-3.628
	l-0.648,0.322C168.475,16.172,167.982,16.424,165.305,16.424 M148.988,10.08V5.56l0.248-0.012c2.004,0,3.525,0.145,3.525,2.003
	C152.762,9.724,150.43,10.068,148.988,10.08 M155.463,15.398l-2.781-3.88c1.203-0.368,3.479-1.303,3.479-3.918
	c0-4.156-4.391-4.156-6.756-4.156h-4.592l0.248,0.425c0.529,0.954,0.609,1.43,0.609,3.466v7.755c0,2.176-0.09,2.461-0.465,3.258
	l-0.213,0.421h4.812l-0.217-0.421c-0.432-0.906-0.6-1.42-0.6-3.038v-3.65l3.758,5.382c1.098,1.579,1.254,1.728,3.303,1.728h2.625
	l-0.631-0.533C157.01,17.37,156.416,16.78,155.463,15.398 M137.373,16.809c-4.863,0-6.596-3.543-6.596-6.864
	c0-3.206,1.639-6.633,6.236-6.633c2.477,0,4.232,1.242,4.828,1.896l0.518,0.597V1.492l-0.201-0.072
	c-1.377-0.484-3.004-0.721-4.84-0.721c-6.203,0-10.539,3.823-10.539,9.305c0,5.658,4.184,9.313,10.635,9.313
	c1.195,0,2.596-0.168,4.287-0.541l0.178-0.036l1.041-4.08l-0.648,0.43C141.311,15.743,139.707,16.809,137.373,16.809
	 M113.242,11.707l1.611-3.47l1.529,3.47H113.242z M121.805,16l-6.109-12.556h-1.135l-5.09,11.168
	c-1.143,2.558-1.592,3.122-2.104,3.647l-0.512,0.509h4.223l-0.213-0.421c-0.139-0.289-0.211-0.594-0.211-0.85
	c0-0.24,0.176-0.609,0.488-1.299l1.082-2.288h5.16l0.922,1.96c0.125,0.301,0.496,1.118,0.496,1.52c0,0.344-0.088,0.632-0.264,0.925
	l-0.279,0.453h5.617l-0.465-0.509C122.756,17.551,122.25,16.916,121.805,16 M105.756,3.861l0.201-0.417h-4.922l0.338,0.472
	c0.537,0.727,0.572,1.696,0.572,2.798v8.761c0,1.587-0.061,1.723-0.568,2.785l-0.236,0.509h4.344l0.465-0.017l-0.193-0.42
	c-0.537-1.179-0.598-1.316-0.598-2.857V6.714C105.158,5.287,105.219,4.971,105.756,3.861 M94.96,16.08
	c-0.753,0.381-1.771,0.432-2.469,0.432h-1.426v-4.844h1.595c2.051,0,3.414,0.416,3.414,2.436
	C96.075,15.045,95.706,15.698,94.96,16.08 M91.066,5.636h1.082c1.65,0.032,2.669,0.341,2.669,1.812c0,1.715-1.331,2.088-2.445,2.088
	h-1.306V5.636z M96.587,10.012c0.745-0.488,1.659-1.431,1.659-2.881c0-3.687-4.208-3.687-5.787-3.687h-5.345l0.208,0.417
	C87.724,4.73,87.9,5.175,87.9,6.874v8.267c0,1.703-0.032,2.117-0.793,3.146l-0.346,0.481h5.698c2.269,0,6.981,0,6.981-4.757
	C99.441,12.068,98.439,10.677,96.587,10.012 M85.191,15.971l-1.282-9.649c-0.073-0.509-0.105-0.95-0.105-1.37
	c0-0.429,0.186-0.806,0.377-1.006l0.474-0.501h-4.745l-0.24,0.004l-0.048,0.24c-0.128,0.641-0.213,1.058-0.633,2.052l-3.134,7.254
	l-3.103-7.318c-0.344-0.853-0.464-1.347-0.464-1.947V3.444h-4.905l0.296,0.589c0.16,0.317,0.306,0.581,0.306,1.105
	c0,0.16-0.045,0.356-0.072,0.565c-0.041,0.172-0.061,0.336-0.085,0.497l-1.435,9.77c-0.14,1.078-0.276,1.647-0.752,2.328
	l-0.325,0.47h3.999l-0.225-0.437c-0.249-0.49-0.377-0.971-0.377-1.432c0-0.404,0.048-0.829,0.112-1.277l1.243-8.168l4.848,11.313
	h0.906l5.001-11.449l1.074,8.463c0.008,0.117,0.023,0.241,0.031,0.353c0.024,0.177,0.04,0.338,0.04,0.525
	c0,0.613-0.248,1.21-0.453,1.688l-0.203,0.421h4.784l-0.337-0.837C85.503,17.305,85.291,16.825,85.191,15.971 M63.294,14.692V5.965
	c0-0.777,0.257-1.442,0.541-2.108l0.182-0.412h-4.803l0.226,0.425C59.92,4.787,60,5.279,60,7.183v4.757c0,2.553,0,4.732-3.71,4.773
	h-0.073c-2.948,0-3.182-2.256-3.182-4.773V7.183c0-1.547,0.104-2.669,0.329-3.351l0.128-0.388h-4.636l0.184,0.412
	c0.478,1.095,0.629,1.583,0.629,3.326v4.757c0,2.553,0,7.314,5.971,7.314c2.284,0,3.695-0.938,4.514-1.636v1.15h3.967l-0.225-0.437
	C63.359,17.305,63.294,16.928,63.294,14.692 M42.032,16.355H40.91V7.255c0-1.924,0.072-2.368,0.545-3.394l0.201-0.417h-4.877
	l0.224,0.425c0.493,1.005,0.613,1.418,0.613,3.386v8.136c0,1.582-0.088,1.923-0.577,2.957l-0.2,0.421h9.75l1.282-3.603l-0.629,0.26
	C45.257,16.264,44.724,16.355,42.032,16.355 M26.484,16.912c-3.791,0-5.146-3.053-5.146-5.882c0-3.575,1.924-5.683,5.146-5.683
	c3.166,0,5.072,2.107,5.072,5.683C31.556,14.701,29.65,16.912,26.484,16.912 M26.484,2.955c-5.475,0-8.736,4.107-8.736,8.075
	c0,4.616,3.831,8.224,8.736,8.224c4.256,0,8.672-3.082,8.672-8.224C35.156,6.51,31.349,2.955,26.484,2.955 M11.184,16.809
	c-4.857,0-6.597-3.543-6.597-6.864c0-3.223,1.64-6.645,6.251-6.645c2.47,0,4.232,1.25,4.817,1.907l0.529,0.577V1.472l-0.2-0.067
	c-1.388-0.478-3.022-0.722-4.85-0.722c-6.204,0-10.539,3.831-10.539,9.313c0,5.666,4.172,9.321,10.636,9.321
	c1.206,0,2.604-0.168,4.292-0.541l0.172-0.036l1.042-4.08l-0.642,0.43C15.126,15.743,13.507,16.809,11.184,16.809"/>
</svg>
