<svg version="1.1" xmlns="http://www.w3.org/2000/svg" xmlns:xlink="http://www.w3.org/1999/xlink" x="0px" y="0px"
	 width="30px" height="34px" viewBox="0 0 30 34" enable-background="new 0 0 30 34" xml:space="preserve">
<path fill="#E44F1D" d="M21.999,3.191c-0.056-0.025-0.043-0.022-0.006-0.001c-0.244-0.122-0.712-0.298-1.193-0.175
	c-1.465,0.186-2.291,1.788-1.582,3.073c0.131,0.383,0.322,0.754,0.345,1.166c0.026,0.388-0.075,0.77-0.21,1.13
	c-0.283,0.774-0.73,1.49-1.184,2.175c-0.951,1.441-2.06,2.769-2.978,4.233c-0.782,1.243-1.502,2.549-1.663,4.032
	c-0.151,1.4,0.163,2.773,1.216,3.771l0.006,0.005c0.85,1.108,2.444,1.351,3.622,0.632c0.598-0.376,1.151-0.941,1.223-1.677
	c0.088-0.925-0.625-1.418-1.068-2.115c-0.417-0.657-0.641-1.558-0.066-2.192c0.474-0.523,1.397-0.793,2.021-0.385
	c2.313,1.891,2.715,5.476,0.854,7.816c-1.018,1.283-2.603,2.081-4.244,2.098c-1.637,0.018-3.216-0.743-4.38-1.868
	c-1.208-1.06-1.892-2.649-2.096-4.224c-0.195-1.533,0.109-3.061,0.687-4.479c0.172-0.336,1.297-2.492,1.326-2.612l0.002-0.008
	c0.142-0.414-0.086-0.742-0.428-0.954c-0.289-0.166-0.866-0.186-1.078-0.188C9.279,12.482,8.344,12,8.344,12l0.001-0.004
	c-0.373-0.198-0.708-0.478-0.958-0.838c-0.672-0.95-0.669-2.257,0.012-3.204c0.682-0.951,1.931-1.368,3.048-1.028
	c1.074,0.328,1.833,1.299,1.94,2.39c-0.025,0.886,1.156,1.118,1.156,1.118c1.064,0.267,2.238-0.08,2.924-1.035
	c0.943-1.313,0.503-2.811-0.266-4.083C14.5,2.501,11.148,0.848,7.889,1.552C4.832,2.21,2.431,4.729,1.829,7.784
	c-0.57,2.889,0.541,5.915,2.818,7.765c-0.777,1.121-1.9,2.834-2.291,3.91c0,0,1.422,1.765,3.209,1.026
	c-0.173,2.864,0.729,5.748,2.577,7.986c2.216,2.684,5.611,4.22,9.089,4.135c3.679-0.091,7.188-2.035,9.209-5.106
	c1.957-2.969,2.416-6.729,1.233-10.08c-0.635-1.789-1.696-3.473-3.113-4.744l-0.03-0.027c-0.446-0.4-1.44-1.453-1.11-2.5
	c0.473-1.053,1.024-2.252,0.791-3.542c-0.006-0.124-0.043-0.247-0.127-0.509l-0.095-0.263l-0.059-0.15
	C23.441,4.425,22.794,3.585,21.999,3.191"/>
</svg>
