<svg version="1.1" xmlns="http://www.w3.org/2000/svg" xmlns:xlink="http://www.w3.org/1999/xlink" x="0px" y="0px"
	 width="506px" height="216px" viewBox="0 0 506 216" enable-background="new 0 0 506 216" xml:space="preserve">
<g>
	<path fill="#fff" d="M263.628,31.346C254.906,12.646,236.37,1.66,217.014,1.661c-7.273,0-14.664,1.551-21.685,4.829
		c-25.728,11.992-36.857,42.571-24.863,68.3c8.719,18.697,27.255,29.683,46.616,29.683c7.268,0,14.659-1.55,21.686-4.825
		C264.49,87.649,275.623,57.073,263.628,31.346 M240.7,74.771c-4.186,6.351-11.434,10.369-19.038,10.556
		c-7.189,0.176-14.211-3.001-18.793-8.546c-3.821-4.628-5.684-10.588-5.324-16.507c-3.697,1.526-6.629-2.125-6.629-2.125
		c0.805-2.224,3.127-5.765,4.731-8.083c-4.707-3.822-7.008-10.078-5.827-16.048c1.246-6.318,6.209-11.52,12.527-12.886
		c6.736-1.455,13.67,1.963,17.184,7.785c1.587,2.626,2.499,5.724,0.55,8.439c-1.416,1.974-3.844,2.692-6.045,2.14
		c0,0-2.44-0.48-2.389-2.312c-0.219-2.255-1.789-4.262-4.004-4.939c-2.316-0.706-4.893,0.157-6.305,2.124
		c-1.408,1.957-1.416,4.655-0.028,6.624c0.52,0.744,1.21,1.321,1.982,1.731l-0.003,0.005c0,0,1.932,0.999,5.749,0.925
		c0.434,0,1.627,0.042,2.228,0.386c0.704,0.44,1.176,1.114,0.882,1.968l-0.005,0.018c-0.06,0.249-2.382,4.706-2.743,5.402
		c-1.196,2.929-1.821,6.089-1.414,9.26c0.417,3.252,1.832,6.534,4.33,8.73c2.406,2.324,5.671,3.896,9.051,3.862
		c3.4-0.036,6.673-1.688,8.775-4.339c3.847-4.84,3.021-12.249-1.76-16.157c-1.295-0.845-3.203-0.286-4.179,0.796
		c-1.188,1.312-0.724,3.172,0.135,4.531c0.913,1.446,2.386,2.459,2.203,4.372c-0.142,1.52-1.29,2.691-2.524,3.466
		c-2.43,1.484-5.729,0.986-7.488-1.302l-0.011-0.012c-2.173-2.064-2.83-4.903-2.513-7.798c0.332-3.065,1.824-5.764,3.438-8.335
		c1.898-3.027,4.189-5.772,6.157-8.748c0.938-1.42,1.857-2.894,2.445-4.494c0.281-0.746,0.486-1.538,0.438-2.338
		c-0.048-0.851-0.45-1.617-0.717-2.412c-1.465-2.652,0.247-5.967,3.271-6.351c0.999-0.253,1.963,0.111,2.465,0.359
		c-0.076-0.038-0.099-0.052,0.012,0.004v0.002c1.641,0.81,2.986,2.547,3.995,5.152l0.121,0.309l0.196,0.543
		c0.172,0.545,0.248,0.797,0.266,1.052c0.474,2.667-0.664,5.146-1.633,7.322c-0.691,2.165,1.367,4.341,2.29,5.172l0.061,0.056
		c2.929,2.626,5.127,6.105,6.434,9.808C245.691,60.861,244.744,68.635,240.7,74.771"/>
	<path fill="#fff" d="M319.542,67.677v14.446h-24.591v-55.06h17.066V3.178H261.91v12.304c3.419,3.949,6.329,8.388,8.594,13.244
		c8.324,17.856,6.669,37.839-2.65,53.651l-0.086,0.112l-0.903,1.491c-2.65,4.176-5.864,8.021-9.566,11.435v10.591h87.989V67.677
		H319.542z"/>
	<polygon fill="#fff" points="350.726,82.328 357.878,82.328 357.878,26.956 351.968,26.956 351.968,3.178 428.523,3.178 
		428.523,33.155 402.779,33.155 402.779,27.062 388.77,27.062 388.77,42.221 414.692,42.221 414.692,66.246 388.77,66.246 
		388.77,82.123 404.216,82.123 404.216,75.448 429.955,75.448 429.955,106.006 350.726,106.006 	"/>
	<path fill="#fff" d="M163.903,77.506c-1.492-3.127-2.662-6.345-3.539-9.611H147v7.688c0,4.055-7.575,4.893-13.156,4.893
		c-14.728,0-25.593-9.228-25.593-28.653c0-16.771,9.581-24.879,23.877-24.879c5.718,0,13.872,0.699,13.872,4.893v7.687h14.369
		c0.46-1.698,0.989-3.388,1.612-5.057c2.39-6.423,5.896-12.247,10.299-17.3C162.27,7.035,148.234,0.722,132.685,0.722
		c-30.402,0-55.048,24.087-55.048,53.797c0,29.712,24.646,53.798,55.048,53.798c15.957,0,30.321-6.644,40.375-17.247
		C169.401,87.061,166.291,82.508,163.903,77.506"/>
	<polygon fill="#fff" points="323.024,135.937 328.976,135.937 328.976,191.601 323.285,191.601 323.285,215.274 
		401.055,215.274 401.055,184.718 375.313,184.718 375.313,191.394 359.868,191.394 359.868,175.521 388.32,175.521 388.32,151.491 
		359.868,151.491 359.868,136.331 373.878,136.331 373.878,142.425 401.055,142.425 401.055,112.45 323.024,112.45 	"/>
	<polygon fill="#fff" points="146.708,136.139 152.661,136.139 152.661,191.6 146.969,191.6 146.969,215.274 224.739,215.274 
		224.739,184.719 198.997,184.719 198.997,191.393 183.552,191.393 183.552,175.521 212.005,175.521 212.005,151.491 
		183.552,151.491 183.552,136.331 197.562,136.331 197.562,142.425 224.739,142.425 224.739,112.45 146.708,112.45 	"/>
	<path fill="#fff" d="M97.242,136.062h11.874l-6.579,34.024c-1.003,5.719-1.288,12.153-1.288,12.153h-0.574
		c0,0-0.573-6.435-1.859-12.153l-13.299-57.639H62.203l-13.155,57.639c-1.29,5.719-1.862,12.153-1.862,12.153h-0.569
		c0,0-0.43-6.435-1.432-12.153l-6.436-34.024h11.731v-23.614H0.852v23.614h8.006l19.165,79.216h33.752l9.868-43.336
		c1.29-5.577,2.001-12.871,2.001-12.871h0.573c0,0,0.575,7.294,1.858,12.871l9.868,43.336h33.752l18.906-79.116h3.069v-0.098v-1.509
		v-0.084V112.45v-0.002H97.242V136.062z"/>
	<path fill="#fff" d="M305.624,161.646v-0.285c8.149-4.579,12.015-13.588,12.015-21.884c0-12.443-7.868-21.595-19.878-25.314
		c-6.008-1.715-10.727-1.715-19.167-1.715h-48.623v23.797h5.908v55.14h-5.908v23.894h51.769c5.581,0,9.728,0,15.306-1.145
		c12.868-2.859,24.739-13.014,24.739-29.463C321.785,175.661,318.497,165.649,305.624,161.646 M279.953,192.611h-11.27v-19.083
		h10.618c6.617,0,9.976,3.212,9.976,9.542C289.277,186.633,288.065,192.611,279.953,192.611 M279.953,153.99h-11.27v-19.083h10.618
		c6.617,0,9.976,3.211,9.976,9.543C289.277,148.013,288.065,153.99,279.953,153.99"/>
	<path fill="#fff" d="M503.909,190.733c-8.914,0-11.203-1.004-12.204-3.291l-4.865-8.062c-2.288-5.007-7.292-6.864-7.292-6.864
		v-0.287c9.008-6.292,14.73-16.162,14.73-28.32c0-14.871-8.58-25.885-21.737-29.603c-6.007-1.718-13.446-1.858-21.456-1.858h-44.814
		v23.797h6.328v55.024h-6.328v24.009h39.343v-22.024h-0.104v-13.015h2.006c4.861,0,6.003,1.143,7.288,3.86l11.731,23.597
		c2.572,5.295,6.579,7.582,14.588,7.582h20.738h3.288L503.909,190.733z M456.684,159.601h-11.271v-23.432h10.617
		c8.245,0,9.976,6.371,9.976,11.716C466.006,151.407,465.097,159.601,456.684,159.601"/>
</g>
</svg>
